Coordinates
version=1
nRows=17
nColumns=40
inDegrees=yes

Units are S.I. units (second, meters, Newtons, ...)
Angles are in degrees.

endheader
time	pelvis_tilt	pelvis_list	pelvis_rotation	pelvis_tx	pelvis_ty	pelvis_tz	hip_flexion_r	hip_adduction_r	hip_rotation_r	knee_angle_r	knee_angle_r_beta	ankle_angle_r	subtalar_angle_r	mtp_angle_r	hip_flexion_l	hip_adduction_l	hip_rotation_l	knee_angle_l	knee_angle_l_beta	ankle_angle_l	subtalar_angle_l	mtp_angle_l	lumbar_extension	lumbar_bending	lumbar_rotation	arm_flex_r	arm_add_r	arm_rot_r	elbow_flex_r	pro_sup_r	wrist_flex_r	wrist_dev_r	arm_flex_l	arm_add_l	arm_rot_l	elbow_flex_l	pro_sup_l	wrist_flex_l	wrist_dev_l
      3.53750000	     -1.75978908	     -5.02099861	      4.01971213	      1.02785895	      0.93777632	      0.51606873	      4.16830933	      4.09910651	    -20.34405600	     10.29552801	     10.29552801	      9.90625961	      8.41877135	     -5.34027834	     30.28792379	    -15.33408312	     -1.13517184	     45.14825378	     45.14825378	      9.60508624	    -17.43829894	     10.68060948	     -9.07885766	      7.24413744	      4.26848773	     38.04930946	    -21.34307904	     -1.87504292	     68.14044992	     44.85769639	      0.00000000	      0.00000000	    -10.51477117	     -6.18753305	      0.73770981	     26.41738763	     44.91058192	      0.00000000	      0.00000000
      3.55071429	     -1.86770521	     -5.02846332	      4.19981763	      1.02662880	      0.93730293	      0.51591936	      3.89004111	      4.16232277	    -20.41572527	     10.09195620	     10.09195620	     10.10681400	      8.43286046	     -5.46293903	     30.27555253	    -15.10751798	     -1.28121336	     41.59323139	     41.59323139	      9.56053487	    -17.12999126	     11.02589085	     -9.11231890	      7.25904359	      4.29298138	     39.34522916	    -21.51214865	     -2.14490480	     69.81823456	     44.82522232	      0.00000000	      0.00000000	    -11.60747759	     -5.86635647	      1.15061120	     26.40078442	     44.82828810	      0.00000000	      0.00000000
      3.56392857	     -2.10026121	     -5.03880740	      4.35353850	      1.02533751	      0.93649410	      0.51563939	      3.74027707	      4.21632945	    -20.45677275	      9.87009454	      9.87009454	     10.36455048	      8.43103780	     -5.59514877	     30.35501198	    -14.88700093	     -1.53765770	     38.06984092	     38.06984092	      9.55239360	    -16.52196276	     11.42543095	     -8.97133571	      7.28798535	      4.34971392	     40.72737450	    -21.66167446	     -2.38392411	     71.15269602	     44.79945134	      0.00000000	      0.00000000	    -12.49969417	     -5.53802316	      1.37800930	     26.26515979	     44.77825893	      0.00000000	      0.00000000
      3.57714286	     -2.18671085	     -5.07385455	      4.56583859	      1.02412417	      0.93580656	      0.51514811	      3.41419869	      4.30547101	    -20.55132298	      9.61883105	      9.61883105	     10.59728166	      8.44087735	     -5.76226264	     30.20745197	    -14.63045977	     -1.71697525	     34.53680257	     34.53680257	      9.44891524	    -15.80831366	     11.67733170	     -9.03493574	      7.35687106	      4.14552309	     41.87733175	    -21.54966661	     -2.61768487	     73.09512590	     44.75461059	      0.00000000	      0.00000000	    -13.43237262	     -5.28553071	      1.69155017	     26.17325256	     44.71525591	      0.00000000	      0.00000000
      3.59035714	     -2.35332181	     -5.14378980	      4.78089699	      1.02284084	      0.93489146	      0.51452499	      3.18724098	      4.41626105	    -20.65550536	      9.37875585	      9.37875585	     10.83089899	      8.42429036	     -5.94353725	     30.18160938	    -14.39811634	     -1.94516823	     31.24012190	     31.24012190	      9.37839562	    -14.78856249	     11.90068038	     -8.96872573	      7.44022017	      4.06584924	     42.95068440	    -21.58339780	     -2.88285210	     74.73050807	     44.72000920	      0.00000000	      0.00000000	    -14.14018809	     -5.03554415	      1.94177211	     26.08906090	     44.66651248	      0.00000000	      0.00000000
      3.60357143	     -2.43700961	     -5.22640753	      5.01538458	      1.02169965	      0.93407482	      0.51370155	      2.82915663	      4.55166700	    -20.77362748	      9.07163835	      9.07163835	     11.01619382	      8.43849747	     -6.16985582	     30.05740868	    -14.16962685	     -2.22538082	     28.19867460	     28.19867460	      9.31463589	    -13.56789456	     11.96078668	     -9.03014587	      7.55220090	      3.90544205	     43.77870143	    -21.56757792	     -3.23694630	     76.73825350	     44.67796749	      0.00000000	      0.00000000	    -14.75543688	     -4.85022283	      2.25830368	     26.01220420	     44.61176238	      0.00000000	      0.00000000
      3.61678571	     -2.55969666	     -5.30613352	      5.25823985	      1.02055814	      0.93319751	      0.51275268	      2.49756512	      4.67739491	    -20.89517641	      8.73675443	      8.73675443	     11.21206866	      8.44560818	     -6.40312846	     30.01641752	    -13.92647737	     -2.58557801	     25.53755923	     25.53755923	      9.22467826	    -12.17244416	     12.07448033	     -9.00410945	      7.62631672	      3.84752263	     44.49453345	    -21.61300596	     -3.61342717	     78.43519897	     44.64622367	      0.00000000	      0.00000000	    -15.16688260	     -4.70073923	      2.52882896	     25.90941634	     44.56895671	      0.00000000	      0.00000000
      3.63000000	     -2.65988804	     -5.38926676	      5.49156911	      1.01951567	      0.93239207	      0.51164049	      2.10451147	      4.80968241	    -21.01659324	      8.33555742	      8.33555742	     11.34619197	      8.49916491	     -6.63100709	     30.00175164	    -13.68406298	     -3.00814087	     23.35379549	     23.35379549	      9.19435083	    -10.69980998	     12.15373688	     -9.00846660	      7.71839920	      3.76889950	     45.03692532	    -21.63471099	     -4.03821866	     80.10009155	     44.61715354	      0.00000000	      0.00000000	    -15.42096155	     -4.60061109	      2.78580352	     25.78320824	     44.53288757	      0.00000000	      0.00000000
      3.64321429	     -2.87156843	     -5.61371265	      5.76672269	      1.01839856	      0.93133357	      0.51037713	      1.92732928	      5.05083366	    -21.20546712	      8.09310473	      8.09310473	     11.51331916	      8.47423367	     -6.75847861	     30.31878584	    -13.49857542	     -3.14239889	     21.84909111	     21.84909111	      9.09556546	     -9.65520802	     12.31833190	     -8.79925890	      7.93687169	      3.68697184	     45.73959544	    -21.82416332	     -4.33028986	     80.90589075	     44.60704829	      0.00000000	      0.00000000	    -15.53766338	     -4.50972891	      2.87658805	     25.72611090	     44.52035760	      0.00000000	      0.00000000
      3.65642857	     -2.89876958	     -5.58176313	      5.91847208	      1.01769423	      0.93088808	      0.50897355	      1.32938117	      5.07341599	    -21.23292302	      7.51040535	      7.51040535	     11.59794604	      8.70677222	     -6.91290095	     30.12570927	    -13.17141690	     -3.80069719	     20.50218400	     20.50218400	      9.12813691	     -8.24234712	     12.31745051	     -8.87379622	      7.86601418	      3.52172556	     45.89162933	    -21.59196899	     -4.72016722	     82.49091137	     44.57650246	      0.00000000	      0.00000000	    -15.56957682	     -4.49236577	      3.03797010	     25.61829112	     44.50374268	      0.00000000	      0.00000000
      3.66964286	     -2.93578056	     -5.75271370	      6.12950280	      1.01717062	      0.93018503	      0.50753699	      0.68949116	      5.34378185	    -21.44358528	      6.79041033	      6.79041033	     11.44739235	      8.99247124	     -7.51435448	     30.33122914	    -13.10821049	     -4.46372364	     20.18177019	     20.18177019	      8.98005628	     -6.88172055	     11.70554178	     -8.90082746	      8.02385354	      4.35968825	     44.86947383	    -22.36956684	     -6.58393019	     85.86987434	     44.56333635	      0.00000000	      0.00000000	    -15.01244543	     -4.70962663	      3.61009125	     25.46680281	     44.47155341	      0.00000000	      0.00000000
      3.68285714	     -3.02691391	     -5.80405820	      6.28422480	      1.01667325	      0.92960364	      0.50582777	      0.21653511	      5.40738063	    -21.59208358	      6.33460376	      6.33460376	     11.50906684	      9.19557575	     -7.60676920	     30.36669083	    -12.79600902	     -4.72138992	     19.96326940	     19.96326940	      8.62183346	     -6.46425236	     11.36486835	     -8.80321886	      8.04624020	      4.40769656	     44.75012623	    -22.37779556	     -7.18663420	     87.04494937	     44.57611407	      0.00000000	      0.00000000	    -14.71568644	     -4.80402086	      4.03038838	     25.36171822	     44.45070327	      0.00000000	      0.00000000
      3.69607143	     -3.10740779	     -5.86508347	      6.34992695	      1.01636116	      0.92900252	      0.50411115	     -0.27949733	      5.47110091	    -21.62283736	      5.90117469	      5.90117469	     11.68204320	      9.56257389	     -7.57741677	     30.32384096	    -12.52567195	     -4.90648819	     20.08652281	     20.08652281	      8.27363045	     -6.30665182	     10.94667236	     -8.72572226	      8.07200142	      4.32519784	     44.50697957	    -22.34488420	     -7.66900059	     87.99752489	     44.58108836	      0.00000000	      0.00000000	    -14.47353504	     -4.99189643	      4.14939162	     25.54526577	     44.46506185	      0.00000000	      0.00000000
      3.70928571	     -3.24216340	     -5.92735985	      6.35903631	      1.01619629	      0.92834408	      0.50230360	     -0.54359302	      5.45270592	    -21.60040220	      5.84264177	      5.84264177	     11.96360410	      9.57447685	     -7.64424668	     30.20509814	    -12.26112043	     -5.05847713	     20.35315295	     20.35315295	      7.92283354	     -6.34940297	     11.00077051	     -8.50560790	      8.09659239	      4.23594839	     44.44293191	    -22.31152204	     -7.68447282	     88.04924936	     44.58061059	      0.00000000	      0.00000000	    -14.23053843	     -5.06176334	      4.14201864	     25.64307194	     44.47185297	      0.00000000	      0.00000000
      3.72250000	     -3.32857426	     -6.01394831	      6.29987647	      1.01628472	      0.92754247	      0.50038334	     -1.00447706	      5.49181592	    -21.62538970	      5.51479365	      5.51479365	     12.14576654	      9.96346693	     -7.50308467	     30.18530283	    -12.03824314	     -4.88803043	     21.22460719	     21.22460719	      7.50076982	     -6.92128048	     10.49999651	     -8.34500225	      8.06690866	      4.25005055	     43.82303683	    -22.22240899	     -8.12127852	     88.68432105	     44.58079741	      0.00000000	      0.00000000	    -13.90900284	     -5.28722511	      4.02467258	     26.06778371	     44.50912847	      0.00000000	      0.00000000
      3.73571429	     -3.44209010	     -6.04589100	      6.16133946	      1.01654881	      0.92681910	      0.49843173	     -1.34720075	      5.41110038	    -21.68248954	      5.42802089	      5.42802089	     12.57266819	     10.44267319	     -7.04501041	     29.80938955	    -11.71312515	     -4.59691911	     21.60570791	     21.60570791	      6.50494607	     -7.90283818	      9.27717709	     -8.21792875	      8.00197105	      4.78959667	     42.63099855	    -22.38734574	     -9.43022477	     90.19375251	     44.59631979	      0.00000000	      0.00000000	    -13.45549502	     -5.59780687	      3.60705803	     27.16357890	     44.62065938	      0.00000000	      0.00000000
      3.74892857	     -3.55087621	     -6.07413310	      5.97136102	      1.01687554	      0.92607729	      0.49638143	     -1.62850740	      5.30140815	    -21.48227645	      5.45838857	      5.45838857	     12.89454115	     10.51690829	     -7.11311016	     29.39868331	    -11.50876057	     -4.66681481	     22.09625024	     22.09625024	      6.19823454	     -8.07067751	      9.25940574	     -8.04203633	      8.01081156	      4.61744902	     42.21974152	    -22.19932282	     -9.36797641	     90.14060739	     44.59549762	      0.00000000	      0.00000000	    -12.96799831	     -5.74368525	      3.57495334	     27.34736235	     44.63571488	      0.00000000	      0.00000000
